<svg xmlns="http://www.w3.org/2000/svg" viewBox="0 0 1920 724"><defs><style>.cls-1{fill:#333;}.cls-2{fill:#f0b38a;}.cls-3{fill:#007295;}.cls-4{fill:#341f11;}.cls-5{fill:#3bbaa3;}.cls-6{fill:#672675;}.cls-7{fill:#fdc13b;}.cls-8{fill:#f68e1d;}.cls-9{fill:#eb1d23;}.cls-10{fill:#00b7ec;}.cls-11{fill:#e72c81;}.cls-12{font-size:121.61px;}.cls-12,.cls-19,.cls-20{fill:#fff;}.cls-12,.cls-20{font-family:Bungee-Regular, Bungee;}.cls-13{letter-spacing:-0.02em;}.cls-14{letter-spacing:-0.01em;}.cls-15{letter-spacing:0em;}.cls-16{letter-spacing:0em;}.cls-17{fill:#fdc407;}.cls-18{font-size:56.91px;fill:#f5f5f5;font-family:BebasNeue, Bebas Neue;letter-spacing:0.12em;}.cls-20{font-size:45.58px;}.cls-21{letter-spacing:-0.01em;}</style></defs><title>Sale-Banner</title><g id="Layer_1" data-name="Layer 1"><rect class="cls-1" y="0.5" width="1920" height="723"/></g><g id="Layer_2" data-name="Layer 2"><polygon class="cls-2" points="1580.76 631.35 1573.97 391.45 1565.48 630.22 1555.29 630.22 1541.7 344.75 1602.84 344.75 1592.65 631.35 1580.76 631.35"/><polygon class="cls-3" points="1578.64 631.35 1577.79 608.56 1594.63 608.56 1621.52 631.35 1578.64 631.35"/><polygon class="cls-3" points="1522.31 631.35 1553.16 608.56 1567.6 608.56 1567.6 631.35 1522.31 631.35"/><path class="cls-4" d="M1596.62,306.37c-24.49-6.37-57.33-3.83-85.49,12.87C1453.25,353.35,1438.67,452,1478,493.61c56.76,59.86,182.29,53.5,200.12-29.44,14.72-68.22-34.24-145.63-81.51-157.8Z" transform="translate(0 -210)"/><polygon class="cls-2" points="1616.57 253.18 1530.8 256.86 1504.48 431.79 1543.68 280.64 1602.13 287.43 1644.73 415.94 1616.57 253.18"/><path class="cls-5" d="M1593.36,566.35,1605.53,484s-22.5.29-30.71.15c-9.06-.15-34.54-.15-34.54-.15l14,82.09Z" transform="translate(0 -210)"/><path class="cls-6" d="M1567.88,564.37c-83.93,2.41-111,140.82-111,140.82S1524.86,752,1674,715.25c0,0-10.19-153.71-106.15-150.88Z" transform="translate(0 -210)"/><path class="cls-3" d="M1541.7,550.78V569a2.54,2.54,0,0,0,2.55,2.55h56a2.54,2.54,0,0,0,2.55-2.55V550.78a2.53,2.53,0,0,0-2.55-2.54h-56a2.53,2.53,0,0,0-2.55,2.54Z" transform="translate(0 -210)"/><path class="cls-2" d="M1644.87,404.87c0,28.31-34.24,51.37-76.56,51.37s-76.57-23.06-76.57-51.37,34.25-51.37,76.57-51.37,76.56,23.06,76.56,51.37Z" transform="translate(0 -210)"/><path class="cls-4" d="M1647.42,364.11v28.45H1503.06l-.57,47.27-4.67,18.82-8.63,7.36s-20.66-31.7-20.66-32.83c0-1.28,13.44-36.24,13.44-36.24l8.64-22.5,81.52-33Z" transform="translate(0 -210)"/><path class="cls-4" d="M1543.54,398.08c-4,0-7.22,2.4-7.22,5.52s3.26,5.66,7.22,5.66c4.11,0,7.36-2.55,7.36-5.66s-3.25-5.52-7.36-5.52Z" transform="translate(0 -210)"/><path class="cls-4" d="M1598.45,396.94c-4,0-7.22,2.41-7.22,5.52s3.26,5.66,7.22,5.66,7.36-2.54,7.36-5.66-3.25-5.52-7.36-5.52Z" transform="translate(0 -210)"/><polygon class="cls-2" points="1556.7 238.18 1556.7 257.71 1590.39 257.71 1590.39 234.78 1556.7 238.18"/><path class="cls-7" d="M1267.42,599.75c-7.65-17.12-15.43-25.19-23.78-24.9-9.91.42-17.41,13-22.22,24.9h-21.23l-19,142.67,129.64,1-20.95-143.66Zm-38.78,0h0c4.24-9.9,9.76-18,15.28-18.25,3.12-.14,8.92,2.54,16.28,18.25Z" transform="translate(0 -210)"/><polygon class="cls-2" points="1311.86 618.18 1318.51 384.8 1326.71 617.76 1336.63 617.76 1349.22 353.38 1290.77 353.38 1300.25 618.18 1311.86 618.18"/><path class="cls-4" d="M1383.61,317.83c-20.52-22.36-53.07-30.43-82.23-22.93-46.14,11.89-78,49.68-64,116.2,12.18,33.4,32,83.08-3.11,108.69-1.56,1.13-21.23,13-22.93,10.61,36.38,53.22,101.9,11.19,101.9,11.19s11.18-24.91,80.39-101.76c11.32-12.6,19.68-33.26,19.81-50.1.29-24.77-13.3-53.79-29.86-71.9Z" transform="translate(0 -210)"/><path class="cls-2" d="M1408.66,384.63c-1.41-.56-12.74-.71-14.29-.42a35.58,35.58,0,0,0-1.84-5c-29.87.85-62.13-15.14-88.46-33.68-12.17,12.88-28.87,21.09-46.27,24.91a12,12,0,0,1-3.83.14,54.73,54.73,0,0,0-3.68,6.09,7.3,7.3,0,0,0-6.09-2c-6.08.85-9.76,10.19-8.2,20.81s7.92,18.4,14,17.55a3.44,3.44,0,0,0,1-.29c6.8,11.89,19.67,22.37,36.51,27.74,25.34,8.07,71.9,1.56,71.9,1.56,14.43-4.39,26.47-11.6,34.82-20.52,5.24,0,11.74-5.66,15.85-14,4.67-10.05,4.1-20.24-1.42-22.93Z" transform="translate(0 -210)"/><polygon class="cls-2" points="1357.71 240.02 1381.35 391.17 1351.2 276.81 1294.17 280.07 1242.37 371.92 1289.92 241.01 1357.71 240.02"/><path class="cls-3" d="M1299.54,557.3l-8.63-87s6.09-14,30-14c28.3,0,33.68,14,33.68,14l-10.33,86.61Z" transform="translate(0 -210)"/><path class="cls-4" d="M1304.07,378.83c-4,0-7.07,3.39-7.07,7.64a7.09,7.09,0,1,0,14.15,0c0-4.25-3.12-7.64-7.08-7.64Z" transform="translate(0 -210)"/><path class="cls-4" d="M1364.08,382.22c-4,0-7.08,3.4-7.08,7.65a7.09,7.09,0,1,0,14.16,0c0-4.25-3.11-7.65-7.08-7.65Z" transform="translate(0 -210)"/><polygon class="cls-5" points="1421.4 391.45 1348.23 412.26 1334.64 364.42 1407.95 343.76 1421.4 391.45"/><path class="cls-7" d="M1664.12,615.18c-11.18-15-20.52-21.23-28.73-19.11-9.48,2.55-14,16.56-16.13,29.16l-20.81,4.67,12.74,143.23L1738,745.81l-51.94-135.58Zm-37.93,8.49h0c2.13-10.61,5.66-19.67,11-21.23,3-.7,9.2.57,19.82,14.3Z" transform="translate(0 -210)"/><path class="cls-7" d="M1409.09,576.69c-11.18-14.86-20.52-21.09-28.59-19-9.63,2.55-14.16,16.42-16.28,29.16l-20.66,4.53,12.6,143.36L1483,707.46l-52-135.73Zm-37.93,8.63h0c2.12-10.62,5.66-19.81,11-21.23,3-.85,9.19.57,19.81,14.3Z" transform="translate(0 -210)"/><polygon class="cls-8" points="1486.22 510.2 1383.76 452.31 1449.85 351.4 1525.99 384.52 1486.22 510.2"/><path class="cls-9" d="M1525,605.56c-.28-18.54-4.39-29.16-12.31-32.13-9.2-3.4-21,5.24-30,14.3l-19.53-8.21-72.89,124.12,119.17,51.23,36.37-140.54Zm-35.66-15h0c7.78-7.36,16-12.88,21.08-10.9,3,1.13,7.22,5.8,7.93,23.07Z" transform="translate(0 -210)"/><polygon class="cls-2" points="1309.03 227.99 1309.03 243.84 1336.48 243.84 1336.48 225.16 1309.03 227.99"/><path class="cls-3" d="M1320.06,541.59c-82.08,2.26-108.55,137.7-108.55,137.7s66.38,45.72,212.3,9.91c0,0-9.91-150.3-103.75-147.61Z" transform="translate(0 -210)"/><polygon class="cls-9" points="1324.59 630.07 1323.89 610.12 1338.75 610.12 1362.24 630.07 1324.59 630.07"/><polygon class="cls-9" points="1272.37 630.07 1299.54 610.12 1312.71 610.12 1312.71 630.07 1272.37 630.07"/><path class="cls-9" d="M1402.29,422.56a8.69,8.69,0,0,1-8.63,8.77,8.77,8.77,0,0,1,0-17.54,8.69,8.69,0,0,1,8.63,8.77Z" transform="translate(0 -210)"/><path class="cls-9" d="M1259.77,412.09a8.6,8.6,0,0,1-8.63,8.77,8.71,8.71,0,1,1,0-17.41,8.57,8.57,0,0,1,8.63,8.64Z" transform="translate(0 -210)"/></g><g id="Layer_3" data-name="Layer 3"><polygon class="cls-10" points="396.83 542.49 248.43 542.49 322.63 147.44 471.03 147.44 396.83 542.49"/><polygon class="cls-11" points="676.75 495.47 657.01 531.75 681.52 531.75 701.26 495.47 676.75 495.47"/><polygon class="cls-11" points="715.37 495.47 695.63 531.75 720.13 531.75 739.87 495.47 715.37 495.47"/><polygon class="cls-11" points="753.98 495.47 734.24 531.75 758.75 531.75 778.49 495.47 753.98 495.47"/><polygon class="cls-11" points="792.6 495.47 772.86 531.75 797.36 531.75 817.11 495.47 792.6 495.47"/><polygon class="cls-10" points="589.97 542.49 441.56 542.49 515.77 147.44 664.17 147.44 589.97 542.49"/><polygon class="cls-10" points="617.02 537.89 611.87 537.89 686.07 142.84 691.22 142.84 617.02 537.89"/><text class="cls-12" transform="translate(196.97 330.17)">Ng<tspan class="cls-13" x="177.66" y="0">à</tspan><tspan class="cls-14" x="263.4" y="0">y</tspan><tspan class="cls-15" x="347.91" y="0" xml:space="preserve"> Hội</tspan><tspan x="0" y="143.68">Mu</tspan><tspan class="cls-16" x="193.96" y="143.68">a</tspan><tspan x="282.12" y="143.68" xml:space="preserve"> Sắm</tspan></text><polygon class="cls-11" points="810.93 144.07 759.31 233.48 707.68 144.07 810.93 144.07"/><polygon class="cls-11" points="565.58 138.34 541.48 180.07 517.39 138.34 565.58 138.34"/><polygon class="cls-10" points="892.98 474.91 866.14 521.4 839.29 474.91 892.98 474.91"/><polygon class="cls-10" points="228.79 204.87 247.38 172.68 265.96 204.87 228.79 204.87"/><polygon class="cls-17" points="768.14 381.22 794.98 334.73 821.83 381.22 768.14 381.22"/><polygon class="cls-17" points="562.33 563.76 589.17 517.26 616.01 563.76 562.33 563.76"/><polygon class="cls-11" points="533.43 560.03 202.63 560.03 202.63 501.58 547.14 501.58 533.43 560.03"/><text class="cls-18" transform="translate(235.83 551.49)">GREAT SALE</text><polygon class="cls-11" points="0 0 197 0 0 227.48 0 0"/><polygon class="cls-10" points="1920 724 1723 724 1920 496.52 1920 724"/></g><g id="Layer_4" data-name="Layer 4"><circle class="cls-11" cx="1071.55" cy="138.93" r="104.6"/><path class="cls-11" d="M1171.59,296.63a9.73,9.73,0,1,1-9.73-9.73A9.73,9.73,0,0,1,1171.59,296.63Z" transform="translate(0 -210)"/><circle class="cls-11" cx="1189.83" cy="102.44" r="5.17"/><path class="cls-11" d="M981.85,395.46a5.17,5.17,0,1,1-5.17-5.17A5.17,5.17,0,0,1,981.85,395.46Z" transform="translate(0 -210)"/><circle class="cls-11" cx="1160.64" cy="221.03" r="3.88"/><circle class="cls-11" cx="1035.67" cy="260.26" r="2.42"/><path class="cls-11" d="M1158.5,267.15a2.42,2.42,0,1,1-2.42-2.43A2.42,2.42,0,0,1,1158.5,267.15Z" transform="translate(0 -210)"/><path class="cls-11" d="M982.13,421a3.34,3.34,0,1,1-3.33-3.33A3.33,3.33,0,0,1,982.13,421Z" transform="translate(0 -210)"/><circle class="cls-11" cx="981.85" cy="59.57" r="3.88"/><path class="cls-11" d="M968.56,286.9a6.79,6.79,0,1,1-6.78-6.78A6.79,6.79,0,0,1,968.56,286.9Z" transform="translate(0 -210)"/><rect class="cls-19" x="997.11" y="27.62" width="146.44" height="216.85" rx="9"/><rect class="cls-10" x="1008.37" y="57.19" width="122.51" height="157.71" rx="1.54"/><path class="cls-10" d="M1080,443.67h-21.12a5,5,0,0,1-4.93-4.93h0a5,5,0,0,1,4.93-4.93H1080a5,5,0,0,1,4.93,4.93h0A5,5,0,0,1,1080,443.67Z" transform="translate(0 -210)"/><text class="cls-20" transform="translate(1016.48 140.03)">50%</text><text class="cls-20" transform="translate(1026.55 184.24)">OF<tspan class="cls-21" x="61.77" y="0">F</tspan></text><path class="cls-17" d="M1167.67,382.07l1-3.76a1.1,1.1,0,0,1,2.12,0l1,3.76a1.13,1.13,0,0,0,.78.78l3.76,1a1.1,1.1,0,0,1,0,2.12l-3.76,1a1.12,1.12,0,0,0-.78.77l-1,3.77a1.1,1.1,0,0,1-2.12,0l-1-3.77a1.11,1.11,0,0,0-.77-.77l-3.77-1a1.1,1.1,0,0,1,0-2.12l3.77-1A1.12,1.12,0,0,0,1167.67,382.07Z" transform="translate(0 -210)"/><path class="cls-17" d="M969.49,319.52l1-3.76a1.09,1.09,0,0,1,2.11,0l1,3.76a1.09,1.09,0,0,0,.77.78l3.76,1a1.1,1.1,0,0,1,0,2.12l-3.76,1a1.09,1.09,0,0,0-.77.77l-1,3.77a1.09,1.09,0,0,1-2.11,0l-1-3.77a1.09,1.09,0,0,0-.77-.77l-3.77-1a1.1,1.1,0,0,1,0-2.12l3.77-1A1.09,1.09,0,0,0,969.49,319.52Z" transform="translate(0 -210)"/><path class="cls-11" d="M1102.68,234.69l1-3.77a1.1,1.1,0,0,1,2.12,0l1,3.77a1.09,1.09,0,0,0,.77.77l3.77,1a1.1,1.1,0,0,1,0,2.12l-3.77,1a1.09,1.09,0,0,0-.77.77l-1,3.76a1.1,1.1,0,0,1-2.12,0l-1-3.76a1.1,1.1,0,0,0-.78-.77l-3.76-1a1.1,1.1,0,0,1,0-2.12l3.76-1A1.1,1.1,0,0,0,1102.68,234.69Z" transform="translate(0 -210)"/><path class="cls-10" d="M1168.35,315.46l.63-2.38a.7.7,0,0,1,1.34,0l.64,2.38a.7.7,0,0,0,.49.48l2.38.64a.7.7,0,0,1,0,1.34l-2.38.64a.69.69,0,0,0-.49.49l-.64,2.38a.7.7,0,0,1-1.34,0l-.63-2.38a.69.69,0,0,0-.49-.49l-2.38-.64a.7.7,0,0,1,0-1.34l2.38-.64A.7.7,0,0,0,1168.35,315.46Z" transform="translate(0 -210)"/><path class="cls-10" d="M981.48,434.31l.64-2.37a.69.69,0,0,1,1.33,0l.64,2.37a.69.69,0,0,0,.49.49l2.38.64a.7.7,0,0,1,0,1.34l-2.38.64a.69.69,0,0,0-.49.49l-.64,2.37a.69.69,0,0,1-1.33,0l-.64-2.37a.69.69,0,0,0-.49-.49l-2.38-.64a.7.7,0,0,1,0-1.34l2.38-.64A.69.69,0,0,0,981.48,434.31Z" transform="translate(0 -210)"/><rect class="cls-17" x="1083.06" y="468.12" width="6.09" height="6.09" transform="translate(-15.05 695.99) rotate(-45)"/><rect class="cls-17" x="1096.76" y="468.12" width="6.09" height="6.09" transform="translate(-11.04 705.68) rotate(-45)"/><rect class="cls-17" x="1110.46" y="468.12" width="6.09" height="6.09" transform="translate(-7.03 715.37) rotate(-45)"/><path class="cls-17" d="M152,531.23,155.86,517a4.15,4.15,0,0,1,8,0l3.84,14.27a4.16,4.16,0,0,0,2.94,2.93L184.93,538a4.16,4.16,0,0,1,0,8l-14.27,3.84a4.15,4.15,0,0,0-2.94,2.93l-3.84,14.27a4.15,4.15,0,0,1-8,0L152,552.8a4.13,4.13,0,0,0-2.93-2.93L134.81,546a4.16,4.16,0,0,1,0-8l14.27-3.84A4.15,4.15,0,0,0,152,531.23Z" transform="translate(0 -210)"/><path class="cls-17" d="M539.42,281.76l3.85-14.27a4.15,4.15,0,0,1,8,0l3.84,14.27a4.18,4.18,0,0,0,2.94,2.93l14.27,3.84a4.16,4.16,0,0,1,0,8l-14.27,3.84a4.15,4.15,0,0,0-2.94,2.93l-3.84,14.27a4.15,4.15,0,0,1-8,0l-3.85-14.27a4.13,4.13,0,0,0-2.93-2.93l-14.27-3.84a4.16,4.16,0,0,1,0-8l14.27-3.84A4.17,4.17,0,0,0,539.42,281.76Z" transform="translate(0 -210)"/><path class="cls-17" d="M858.42,629.76l3.85-14.27a4.15,4.15,0,0,1,8,0l3.84,14.27a4.18,4.18,0,0,0,2.94,2.93l14.27,3.84a4.16,4.16,0,0,1,0,8l-14.27,3.84a4.15,4.15,0,0,0-2.94,2.93l-3.84,14.27a4.15,4.15,0,0,1-8,0l-3.85-14.27a4.13,4.13,0,0,0-2.93-2.93l-14.27-3.84a4.16,4.16,0,0,1,0-8l14.27-3.84A4.17,4.17,0,0,0,858.42,629.76Z" transform="translate(0 -210)"/><path class="cls-17" d="M147.11,846.38a23.42,23.42,0,1,1-33,2.44A23.42,23.42,0,0,1,147.11,846.38Z" transform="translate(0 -210)"/><path class="cls-17" d="M92.71,752.34a13.44,13.44,0,1,1-18.95,1.41A13.45,13.45,0,0,1,92.71,752.34Z" transform="translate(0 -210)"/><path class="cls-17" d="M70,830.5a13.73,13.73,0,1,1-19.36,1.44A13.73,13.73,0,0,1,70,830.5Z" transform="translate(0 -210)"/></g></svg>